<?xml version="1.0" encoding="iso-8859-1"?>
<!-- Generator: Adobe Illustrator 18.1.1, SVG Export Plug-In . SVG Version: 6.00 Build 0)  -->
<svg xmlns="http://www.w3.org/2000/svg" xmlns:xlink="http://www.w3.org/1999/xlink" version="1.1" id="Capa_1" x="0px" y="0px" viewBox="0 0 612 612" style="enable-background:new 0 0 612 612;" xml:space="preserve" width="512px" height="512px">
<g>
	<path d="M551.659,288.879v-9.109c0-135.456-110.203-245.659-245.662-245.659c-135.454,0-245.655,110.203-245.655,245.659v9.111   C23.382,319.137,0,363.535,0,412.942c0,90.951,79.21,164.947,176.572,164.947c9.876,0,17.88-8.007,17.88-17.88V265.876   c0-9.876-8.007-17.88-17.88-17.88c-11.51,0-22.762,1.045-33.665,3.02c13.652-77.652,81.587-136.84,163.089-136.84   c81.507,0,149.443,59.19,163.096,136.84c-10.902-1.973-22.151-3.02-33.661-3.02c-9.876,0-17.88,8.007-17.88,17.88v294.132   c0,9.876,8.005,17.88,17.88,17.88c97.36,0,176.568-73.995,176.568-164.947C612,363.535,588.618,319.137,551.659,288.879z" fill="#fff"/>
</g>
<g>
</g>
<g>
</g>
<g>
</g>
<g>
</g>
<g>
</g>
<g>
</g>
<g>
</g>
<g>
</g>
<g>
</g>
<g>
</g>
<g>
</g>
<g>
</g>
<g>
</g>
<g>
</g>
<g>
</g>
</svg>
